<svg width="355" height="229" viewBox="0 0 355 229" fill="none" xmlns="http://www.w3.org/2000/svg">
<path d="M353.77 2.28003H25.6401C11.6701 2.28003 0.310059 13.64 0.310059 27.61V200.76C0.310059 214.73 11.6701 226.09 25.6401 226.09H328.44C342.41 226.09 353.77 214.73 353.77 200.76V2.28003Z" fill="black"/>
<path d="M25.6403 7.72998C14.6803 7.72998 5.76025 16.65 5.76025 27.61V138.57H348.32V7.72998H25.6403Z" fill="white"/>
<path d="M6 200.74C6 211.7 14.92 220.62 25.88 220.62H328.68C339.64 220.62 348.56 211.7 348.56 200.74V144H6V200.74Z" fill="white"/>
<path d="M250.19 51.3398V56.7998H287.69L250.19 94.2898L254.05 98.1498L300.85 51.3398H250.19Z" fill="#F7B749"/>
<path d="M306.3 45.8899L311.76 40.4399H250.19V45.8899H306.3Z" fill="#ED362F"/>
<path d="M310.161 49.75V105.86H315.611V44.3L310.161 49.75Z" fill="#43B85C"/>
<path d="M304.71 105.86V55.2L257.9 102L261.76 105.86L299.26 68.36V105.86H304.71Z" fill="#2CB4E2"/>
<path d="M47.3102 68.2099C44.3002 68.2099 42.0702 67.4899 40.6302 66.0499C39.1902 64.6099 38.4702 62.3799 38.4702 59.3699V50.2499C38.4702 47.2099 39.1902 44.9799 40.6402 43.5499C42.0902 42.1199 44.3102 41.4199 47.3102 41.4499H52.0402C55.0702 41.4499 57.3002 42.1699 58.7302 43.5999C60.1602 45.0299 60.8802 47.2599 60.8802 50.2899V59.3699C60.8802 62.3799 60.1602 64.6099 58.7302 66.0499C57.3002 67.4899 55.0702 68.2099 52.0402 68.2099H47.3102ZM47.3102 64.8899H52.0402C53.4502 64.8899 54.5502 64.7199 55.3602 64.3899C56.1602 64.0499 56.7302 63.4899 57.0702 62.6799C57.4102 61.8799 57.5702 60.7699 57.5702 59.3599V50.2799C57.5702 48.8899 57.4002 47.7899 57.0702 46.9899C56.7302 46.1899 56.1602 45.6199 55.3602 45.2699C54.5602 44.9299 53.4502 44.7599 52.0402 44.7599H47.3102C45.9202 44.7499 44.8202 44.9099 44.0102 45.2299C43.2002 45.5499 42.6402 46.1199 42.2902 46.9299C41.9502 47.7299 41.7802 48.8399 41.7802 50.2499V59.3699C41.7802 60.7799 41.9502 61.8799 42.2802 62.6899C42.6202 63.4899 43.1902 64.0599 43.9902 64.3999C44.7902 64.7399 45.9002 64.8999 47.3102 64.8999V64.8899Z" fill="black"/>
<path d="M69.41 76.11C68.3 76.11 67.75 75.56 67.75 74.45V49.87C67.75 48.76 68.3 48.21 69.41 48.21C70.52 48.21 71.07 48.76 71.07 49.87V50.36C71.78 49.65 72.66 49.11 73.7 48.75C74.75 48.39 75.92 48.21 77.22 48.21H78.72C81.35 48.21 83.3 48.84 84.56 50.1C85.82 51.36 86.45 53.31 86.45 55.94V60.48C86.45 63.1 85.82 65.04 84.56 66.31C83.3 67.58 81.35 68.21 78.72 68.21H71.06V74.45C71.06 75.56 70.51 76.11 69.4 76.11H69.41ZM71.07 64.9H78.73C80.45 64.9 81.62 64.59 82.23 63.97C82.84 63.35 83.15 62.19 83.15 60.48V55.94C83.15 54.22 82.85 53.05 82.23 52.44C81.61 51.83 80.45 51.52 78.73 51.52H77.23C75.58 51.52 74.16 51.72 72.97 52.11C71.77 52.5 71.14 53.13 71.08 53.98V64.89L71.07 64.9Z" fill="black"/>
<path d="M95.6904 59.5699V60.5199C95.6904 62.2199 96.0004 63.3699 96.6204 63.9799C97.2404 64.5899 98.4004 64.8999 100.11 64.8999H103.35C104.69 64.8999 105.68 64.7799 106.33 64.5299C106.97 64.2799 107.4 63.8399 107.61 63.2099C107.75 62.7099 107.96 62.3299 108.21 62.0699C108.47 61.8099 108.86 61.6699 109.38 61.6699C109.9 61.6699 110.35 61.8199 110.64 62.0999C110.93 62.3899 111.02 62.8099 110.91 63.3599C110.62 64.9899 109.85 66.2099 108.58 67.0099C107.32 67.8099 105.57 68.2099 103.33 68.2099H100.09C97.4703 68.2099 95.5304 67.5799 94.2604 66.3199C92.9904 65.0599 92.3604 63.1199 92.3604 60.5199V55.9399C92.3604 53.2699 92.9904 51.3099 94.2604 50.0499C95.5304 48.7899 97.4703 48.1799 100.09 48.1999H103.33C105.96 48.1999 107.91 48.8299 109.17 50.0799C110.43 51.3399 111.06 53.2899 111.06 55.9299V57.8999C111.06 59.0099 110.51 59.5599 109.4 59.5599H95.6703L95.6904 59.5699ZM100.11 51.5199C98.4004 51.4899 97.2404 51.7899 96.6204 52.4099C96.0004 53.0299 95.6904 54.2099 95.6904 55.9399V56.2599H107.77V55.9399C107.77 54.2199 107.46 53.0499 106.85 52.4399C106.24 51.8299 105.07 51.5199 103.35 51.5199H100.11Z" fill="black"/>
<path d="M119.6 68.2099C118.5 68.2099 117.94 67.66 117.94 66.55V49.86C117.94 48.75 118.49 48.2 119.6 48.2C120.71 48.2 121.26 48.75 121.26 49.86V50.5099C122.65 48.9699 124.71 48.2 127.42 48.2H128.52C131.15 48.2 133.1 48.83 134.36 50.09C135.62 51.35 136.25 53.3 136.25 55.93V66.55C136.25 67.66 135.7 68.2099 134.59 68.2099C133.48 68.2099 132.93 67.66 132.93 66.55V55.93C132.93 54.21 132.62 53.04 131.99 52.43C131.36 51.82 130.2 51.5099 128.51 51.5099H127.41C125.83 51.5099 124.46 51.6899 123.29 52.0499C122.12 52.4099 121.44 52.9799 121.26 53.7599V66.55C121.26 67.66 120.71 68.2099 119.6 68.2099Z" fill="black"/>
<path d="M145.33 68.21C144.77 68.21 144.35 68.08 144.08 67.81C143.81 67.54 143.68 67.12 143.68 66.56V43.16C143.68 42.58 143.82 42.16 144.08 41.9C144.35 41.64 144.77 41.51 145.33 41.51C145.89 41.51 146.33 41.64 146.59 41.9C146.85 42.16 146.98 42.58 146.98 43.16V66.56C146.98 67.13 146.85 67.54 146.59 67.81C146.33 68.08 145.91 68.21 145.33 68.21Z" fill="black"/>
<path d="M156.46 68.2099C155.35 68.2099 154.8 67.66 154.8 66.55V49.86C154.8 48.75 155.35 48.2 156.46 48.2C157.57 48.2 158.12 48.75 158.12 49.86V50.5099C159.51 48.9699 161.57 48.2 164.28 48.2H165.38C168.01 48.2 169.96 48.83 171.22 50.09C172.48 51.35 173.11 53.3 173.11 55.93V66.55C173.11 67.66 172.56 68.2099 171.45 68.2099C170.34 68.2099 169.79 67.66 169.79 66.55V55.93C169.79 54.21 169.48 53.04 168.85 52.43C168.23 51.82 167.07 51.5099 165.37 51.5099H164.27C162.69 51.5099 161.32 51.6899 160.15 52.0499C158.98 52.4099 158.3 52.9799 158.12 53.7599V66.55C158.12 67.66 157.57 68.2099 156.46 68.2099Z" fill="black"/>
<path d="M182.94 68.2099C181.84 68.2099 181.28 67.6599 181.28 66.5499V51.5099H179.82C178.72 51.5099 178.16 50.9599 178.16 49.8499C178.16 48.7399 178.71 48.1899 179.82 48.1899H181.28V48.0299C181.28 45.4399 181.9 43.5199 183.15 42.2799C184.4 41.0399 186.31 40.4199 188.89 40.4199C189.84 40.4199 190.31 40.9699 190.31 42.0799C190.31 43.1899 189.84 43.7399 188.89 43.7399C187.23 43.7399 186.1 44.0399 185.5 44.6299C184.89 45.2199 184.59 46.3599 184.59 48.0399V48.1999H188.66C189.76 48.1999 190.32 48.7499 190.32 49.8599C190.32 50.9699 189.77 51.5199 188.66 51.5199H184.59V66.5599C184.59 67.6699 184.04 68.2199 182.93 68.2199L182.94 68.2099Z" fill="black"/>
<path d="M197.03 68.2099C195.92 68.2099 195.37 67.66 195.37 66.55V49.86C195.37 48.75 195.92 48.2 197.03 48.2C198.14 48.2 198.69 48.75 198.69 49.86V51.4C199.47 50.35 200.45 49.5499 201.66 49.0099C202.86 48.4699 204.24 48.2 205.79 48.2C206.89 48.2 207.45 48.75 207.45 49.86C207.45 50.97 206.9 51.52 205.79 51.52C203.51 51.52 201.78 51.9399 200.58 52.7799C199.38 53.6199 198.75 54.73 198.69 56.11V66.55C198.69 67.66 198.14 68.2099 197.03 68.2099Z" fill="black"/>
<path d="M216.8 68.21C214.59 68.21 212.94 67.67 211.87 66.59C210.8 65.51 210.25 63.87 210.25 61.66C210.25 59.45 210.79 57.81 211.86 56.73C212.93 55.65 214.58 55.11 216.8 55.11H225.15C225.07 53.73 224.71 52.79 224.06 52.28C223.42 51.77 222.31 51.52 220.75 51.52H218.46C217.14 51.52 216.16 51.61 215.52 51.79C214.87 51.97 214.42 52.29 214.16 52.75C213.92 53.3 213.68 53.68 213.43 53.89C213.18 54.1 212.81 54.21 212.31 54.21C211.76 54.21 211.32 54.06 211.01 53.75C210.7 53.44 210.6 53.03 210.73 52.52C211.12 51.03 211.95 49.95 213.2 49.25C214.46 48.56 216.21 48.21 218.46 48.21H220.75C223.38 48.21 225.33 48.84 226.59 50.1C227.85 51.36 228.48 53.31 228.48 55.94V66.56C228.48 67.67 227.93 68.22 226.82 68.22C225.71 68.22 225.16 67.67 225.16 66.56V65.67C223.75 67.37 221.7 68.22 219 68.22H216.79L216.8 68.21ZM216.8 64.89H219.01C219.98 64.89 220.9 64.8 221.75 64.62C222.6 64.44 223.34 64.12 223.95 63.64C224.56 63.17 224.97 62.49 225.16 61.61V58.41H216.79C215.49 58.41 214.62 58.63 214.2 59.06C213.78 59.49 213.56 60.36 213.56 61.64C213.56 62.92 213.77 63.81 214.2 64.23C214.63 64.66 215.49 64.87 216.79 64.87L216.8 64.89Z" fill="black"/>
<path d="M44.4002 105.86C42.3802 105.86 40.8902 105.38 39.9202 104.41C38.9502 103.44 38.4702 101.95 38.4702 99.9299V89.0299C38.4702 88.6599 38.5602 88.3799 38.7502 88.1999C38.9402 88.0199 39.2102 87.9199 39.5802 87.9199C39.9502 87.9199 40.2302 88.0099 40.4102 88.1999C40.5902 88.3899 40.6902 88.6599 40.6902 89.0299V99.9299C40.6902 100.87 40.8002 101.61 41.0302 102.15C41.2602 102.69 41.6402 103.07 42.1702 103.29C42.7102 103.52 43.4502 103.63 44.3902 103.63H47.5602C48.5002 103.63 49.2402 103.52 49.7802 103.29C50.3202 103.07 50.7002 102.68 50.9202 102.15C51.1502 101.61 51.2602 100.87 51.2602 99.9299V89.0299C51.2602 88.6599 51.3502 88.3799 51.5402 88.1999C51.7302 88.0199 52.0002 87.9199 52.3702 87.9199C52.7402 87.9199 53.0202 88.0099 53.2002 88.1999C53.3802 88.3899 53.4802 88.6599 53.4802 89.0299V99.9299C53.4802 101.95 53.0002 103.44 52.0402 104.41C51.0802 105.38 49.5802 105.86 47.5602 105.86H44.3902H44.4002Z" fill="black"/>
<path d="M65.7301 105.86C64.2201 105.86 63.0501 105.56 62.2101 104.95C61.3701 104.34 60.8401 103.4 60.6301 102.13C60.5901 101.74 60.6701 101.45 60.8701 101.26C61.0601 101.07 61.3501 100.97 61.7201 100.97C62.0901 100.97 62.3601 101.06 62.5301 101.23C62.7001 101.41 62.8201 101.68 62.8801 102.05C63.0101 102.66 63.3001 103.08 63.7301 103.3C64.1701 103.53 64.8301 103.64 65.7301 103.64H69.5401C70.6801 103.64 71.4501 103.44 71.8601 103.03C72.2701 102.62 72.4701 101.86 72.4701 100.74C72.4701 99.62 72.2601 98.82 71.8401 98.41C71.4201 97.99 70.6501 97.78 69.5401 97.78H66.2601C64.5901 97.78 63.3601 97.37 62.5501 96.56C61.7401 95.75 61.3401 94.5 61.3401 92.84C61.3401 91.18 61.7401 89.95 62.5401 89.15C63.3401 88.35 64.5701 87.95 66.2401 87.95H69.3901C70.7901 87.95 71.8901 88.24 72.6901 88.81C73.4901 89.38 73.9901 90.26 74.2001 91.44C74.2501 91.82 74.1801 92.11 73.9901 92.31C73.8001 92.51 73.5001 92.61 73.1201 92.61C72.7701 92.61 72.5001 92.52 72.3301 92.33C72.1501 92.14 72.0401 91.88 71.9901 91.52C71.8501 91 71.5801 90.64 71.1801 90.46C70.7801 90.27 70.1901 90.17 69.3901 90.17H66.2401C65.1801 90.17 64.4701 90.36 64.1101 90.73C63.7501 91.1 63.5701 91.81 63.5701 92.84C63.5701 93.87 63.7501 94.6 64.1201 94.98C64.4901 95.37 65.2101 95.56 66.2601 95.56H69.5401C71.2801 95.56 72.5701 95.98 73.4201 96.83C74.2701 97.68 74.7001 98.98 74.7001 100.75C74.7001 102.52 74.2801 103.8 73.4301 104.63C72.5801 105.46 71.2901 105.88 69.5401 105.88H65.7301V105.86Z" fill="black"/>
<path d="M83.4503 105.86C82.7103 105.86 82.3403 105.49 82.3403 104.75V89.0399C82.3403 88.2999 82.7103 87.9299 83.4503 87.9299H92.9503C93.6903 87.9299 94.0603 88.2999 94.0603 89.0399C94.0603 89.7799 93.6903 90.1499 92.9503 90.1499H84.5603V95.6999H89.8203C90.5603 95.6999 90.9303 96.0699 90.9303 96.8099C90.9303 97.5499 90.5603 97.9199 89.8203 97.9199H84.5603V103.63H92.9503C93.6903 103.63 94.0603 104 94.0603 104.74C94.0603 105.48 93.6903 105.85 92.9503 105.85H83.4503V105.86Z" fill="black"/>
<path d="M113 105.91C112.71 106.09 112.43 106.15 112.17 106.08C111.91 106.01 111.68 105.83 111.5 105.54L107.4 98.7199H103.7V104.75C103.7 105.49 103.33 105.86 102.59 105.86C101.85 105.86 101.48 105.49 101.48 104.75V89.0399C101.48 88.2999 101.85 87.9299 102.59 87.9299H108.78C110.39 87.9299 111.63 88.3599 112.49 89.2199C113.35 90.0799 113.78 91.3199 113.78 92.9299V93.7199C113.78 95.1199 113.45 96.2399 112.8 97.0699C112.15 97.8999 111.2 98.4199 109.97 98.6199L113.43 104.4C113.77 105.02 113.62 105.52 113.01 105.91H113ZM103.69 96.4899H108.77C109.77 96.4899 110.49 96.2799 110.91 95.8599C111.33 95.4399 111.55 94.7199 111.55 93.7199V92.9299C111.55 91.9299 111.34 91.2199 110.91 90.7899C110.49 90.3599 109.77 90.1499 108.77 90.1499H103.69V96.4999V96.4899Z" fill="black"/>
<path d="M136.89 105.86C134.87 105.86 133.38 105.38 132.41 104.41C131.44 103.44 130.96 101.95 130.96 99.9301V93.8501C130.96 91.8101 131.44 90.3101 132.4 89.3501C133.36 88.3801 134.85 87.9101 136.86 87.9301H140.06C141.72 87.9301 142.98 88.2701 143.86 88.9601C144.74 89.6501 145.24 90.7201 145.38 92.1901C145.43 92.5601 145.36 92.8401 145.17 93.0401C144.98 93.2301 144.69 93.3301 144.32 93.3301C143.65 93.3301 143.26 92.9601 143.16 92.2201C143.07 91.4101 142.79 90.8601 142.32 90.5801C141.85 90.3001 141.1 90.1601 140.07 90.1601H136.87C135.94 90.1601 135.2 90.2601 134.67 90.4801C134.14 90.7001 133.76 91.0801 133.53 91.6201C133.3 92.1601 133.19 92.9101 133.19 93.8601V99.9401C133.19 100.88 133.3 101.62 133.53 102.16C133.75 102.7 134.14 103.08 134.67 103.3C135.21 103.53 135.95 103.64 136.89 103.64H140.07C140.89 103.64 141.53 103.55 141.99 103.37C142.45 103.19 142.78 102.87 142.96 102.41C143.15 101.95 143.24 101.3 143.24 100.47V99.2301L141.18 99.2001C140.44 99.2001 140.07 98.8301 140.07 98.0901C140.07 97.3501 140.44 96.9801 141.18 96.9801L144.36 97.0101C145.1 97.0101 145.47 97.3801 145.47 98.1201V100.47C145.47 102.35 145.03 103.72 144.16 104.58C143.29 105.44 141.93 105.87 140.07 105.87H136.89V105.86Z" fill="black"/>
<path d="M164.12 105.91C163.83 106.09 163.55 106.15 163.29 106.08C163.03 106.01 162.8 105.83 162.62 105.54L158.52 98.7199H154.82V104.75C154.82 105.49 154.45 105.86 153.71 105.86C152.97 105.86 152.6 105.49 152.6 104.75V89.0399C152.6 88.2999 152.97 87.9299 153.71 87.9299H159.9C161.51 87.9299 162.75 88.3599 163.61 89.2199C164.47 90.0799 164.9 91.3199 164.9 92.9299V93.7199C164.9 95.1199 164.57 96.2399 163.92 97.0699C163.27 97.8999 162.32 98.4199 161.09 98.6199L164.55 104.4C164.89 105.02 164.74 105.52 164.13 105.91H164.12ZM154.81 96.4899H159.89C160.89 96.4899 161.61 96.2799 162.03 95.8599C162.45 95.4399 162.67 94.7199 162.67 93.7199V92.9299C162.67 91.9299 162.46 91.2199 162.03 90.7899C161.61 90.3599 160.89 90.1499 159.89 90.1499H154.81V96.4999V96.4899Z" fill="black"/>
<path d="M177.18 105.86C175.16 105.86 173.67 105.38 172.7 104.41C171.73 103.44 171.25 101.95 171.25 99.93V93.82C171.25 91.78 171.74 90.29 172.71 89.33C173.68 88.37 175.17 87.9 177.18 87.92H180.36C182.39 87.92 183.88 88.4 184.84 89.36C185.8 90.32 186.28 91.82 186.28 93.84V99.92C186.28 101.94 185.8 103.43 184.84 104.4C183.88 105.37 182.38 105.85 180.36 105.85H177.18V105.86ZM177.18 103.64H180.36C181.3 103.64 182.04 103.53 182.58 103.3C183.12 103.08 183.5 102.69 183.72 102.16C183.95 101.62 184.06 100.88 184.06 99.9401V93.86C184.06 92.93 183.95 92.19 183.72 91.65C183.49 91.11 183.11 90.73 182.58 90.5C182.04 90.27 181.3 90.1601 180.36 90.1601H177.18C176.25 90.1601 175.51 90.2601 174.97 90.4801C174.43 90.7001 174.05 91.0801 173.82 91.6201C173.59 92.1601 173.48 92.9 173.48 93.84V99.95C173.48 100.89 173.59 101.63 173.82 102.17C174.04 102.71 174.43 103.09 174.96 103.31C175.5 103.54 176.24 103.65 177.18 103.65V103.64Z" fill="black"/>
<path d="M199.72 105.86C197.7 105.86 196.21 105.38 195.24 104.41C194.27 103.44 193.79 101.95 193.79 99.9299V89.0299C193.79 88.6599 193.88 88.3799 194.07 88.1999C194.26 88.0199 194.53 87.9199 194.9 87.9199C195.27 87.9199 195.55 88.0099 195.73 88.1999C195.91 88.3899 196.01 88.6599 196.01 89.0299V99.9299C196.01 100.87 196.12 101.61 196.35 102.15C196.58 102.69 196.96 103.07 197.49 103.29C198.03 103.52 198.77 103.63 199.71 103.63H202.88C203.82 103.63 204.56 103.52 205.1 103.29C205.64 103.07 206.02 102.68 206.24 102.15C206.47 101.61 206.58 100.87 206.58 99.9299V89.0299C206.58 88.6599 206.67 88.3799 206.86 88.1999C207.05 88.0199 207.32 87.9199 207.69 87.9199C208.06 87.9199 208.34 88.0099 208.52 88.1999C208.7 88.3899 208.8 88.6599 208.8 89.0299V99.9299C208.8 101.95 208.32 103.44 207.36 104.41C206.4 105.38 204.9 105.86 202.88 105.86H199.71H199.72Z" fill="black"/>
<path d="M217.29 105.86C216.55 105.86 216.18 105.49 216.18 104.75V89.0399C216.18 88.2999 216.55 87.9299 217.29 87.9299H223.48C225.09 87.9299 226.33 88.3599 227.19 89.2199C228.05 90.0799 228.48 91.3199 228.48 92.9299V93.7199C228.48 95.3299 228.05 96.5699 227.19 97.4299C226.33 98.2899 225.09 98.7199 223.48 98.7199H218.4V104.75C218.4 105.49 218.03 105.86 217.29 105.86ZM218.4 96.4999H223.48C224.48 96.4999 225.2 96.2899 225.62 95.8699C226.04 95.4499 226.26 94.7299 226.26 93.7299V92.9399C226.26 91.9399 226.05 91.2299 225.62 90.7999C225.2 90.3699 224.48 90.1599 223.48 90.1599H218.4V96.5099V96.4999Z" fill="black"/>
<path d="M113.313 194C112.333 194 111.843 193.51 111.843 192.53V171.74C111.843 170.76 112.333 170.27 113.313 170.27C113.955 170.27 114.491 170.585 114.923 171.215L123.183 183.64L122.553 183.745L130.883 171.215C131.28 170.585 131.875 170.27 132.668 170.27C133.461 170.27 133.858 170.76 133.858 171.74V192.53C133.858 193.51 133.368 194 132.388 194C131.408 194 130.918 193.51 130.918 192.53V174.68L131.828 174.995L124.478 185.81C124.046 186.44 123.451 186.755 122.693 186.755C122.168 186.755 121.69 186.44 121.258 185.81L113.908 174.995L114.783 175.24V192.53C114.783 193.51 114.293 194 113.313 194ZM143.655 194C142.675 194 142.185 193.51 142.185 192.53V171.74C142.185 170.76 142.675 170.27 143.655 170.27H156.22C157.2 170.27 157.69 170.76 157.69 171.74C157.69 172.72 157.2 173.21 156.22 173.21H145.125V180.56H152.09C153.07 180.56 153.56 181.05 153.56 182.03C153.56 183.01 153.07 183.5 152.09 183.5H145.125V191.06H156.22C157.2 191.06 157.69 191.55 157.69 192.53C157.69 193.51 157.2 194 156.22 194H143.655ZM163.694 193.685C162.912 193.148 162.796 192.46 163.344 191.62L169.749 182.17L162.994 172.65C162.469 171.88 162.597 171.192 163.379 170.585C164.184 170.037 164.861 170.165 165.409 170.97L171.674 179.755L177.974 170.97C178.581 170.188 179.257 170.083 180.004 170.655C180.797 171.238 180.914 171.915 180.354 172.685L173.459 182.275L180.074 191.585C180.622 192.39 180.494 193.09 179.689 193.685C178.884 194.233 178.207 194.105 177.659 193.3L171.569 184.725L165.759 193.335C165.222 194.093 164.534 194.21 163.694 193.685ZM188.753 194C188.251 194 187.878 193.883 187.633 193.65C187.4 193.405 187.283 193.032 187.283 192.53V171.775C187.283 171.262 187.4 170.888 187.633 170.655C187.878 170.422 188.251 170.305 188.753 170.305C189.266 170.305 189.64 170.422 189.873 170.655C190.106 170.888 190.223 171.262 190.223 171.775V192.53C190.223 193.032 190.106 193.405 189.873 193.65C189.64 193.883 189.266 194 188.753 194ZM205.553 194C202.881 194 200.904 193.364 199.62 192.092C198.349 190.809 197.713 188.832 197.713 186.16V178.11C197.713 175.415 198.349 173.432 199.62 172.16C200.892 170.877 202.858 170.247 205.518 170.27H209.753C211.946 170.27 213.62 170.725 214.775 171.635C215.93 172.533 216.601 173.957 216.788 175.905C216.858 176.395 216.765 176.768 216.508 177.025C216.251 177.282 215.878 177.41 215.388 177.41C214.501 177.41 213.988 176.92 213.848 175.94C213.731 174.867 213.358 174.143 212.728 173.77C212.11 173.397 211.118 173.21 209.753 173.21H205.518C204.281 173.198 203.307 173.338 202.595 173.63C201.895 173.922 201.394 174.429 201.09 175.152C200.799 175.864 200.653 176.85 200.653 178.11V186.16C200.653 187.408 200.799 188.388 201.09 189.1C201.394 189.812 201.901 190.319 202.613 190.622C203.325 190.914 204.305 191.06 205.553 191.06H209.753C211.118 191.06 212.11 190.873 212.728 190.5C213.358 190.115 213.731 189.392 213.848 188.33C213.988 187.35 214.501 186.86 215.388 186.86C215.878 186.86 216.251 186.988 216.508 187.245C216.765 187.502 216.858 187.875 216.788 188.365C216.601 190.325 215.93 191.754 214.775 192.652C213.62 193.551 211.946 194 209.753 194H205.553ZM230.973 194C228.301 194 226.324 193.364 225.041 192.092C223.769 190.809 223.133 188.832 223.133 186.16V178.075C223.133 175.38 223.775 173.402 225.058 172.142C226.341 170.871 228.313 170.247 230.973 170.27H235.173C237.856 170.27 239.834 170.906 241.106 172.177C242.377 173.449 243.013 175.427 243.013 178.11V186.16C243.013 188.832 242.377 190.809 241.106 192.092C239.834 193.364 237.856 194 235.173 194H230.973ZM230.973 191.06H235.173C236.421 191.06 237.401 190.914 238.113 190.622C238.825 190.319 239.326 189.812 239.618 189.1C239.921 188.388 240.073 187.408 240.073 186.16V178.11C240.073 176.873 239.921 175.899 239.618 175.187C239.326 174.476 238.825 173.968 238.113 173.665C237.401 173.362 236.421 173.21 235.173 173.21H230.973C229.736 173.198 228.762 173.338 228.051 173.63C227.339 173.922 226.831 174.423 226.528 175.135C226.225 175.847 226.073 176.827 226.073 178.075V186.16C226.073 187.408 226.219 188.388 226.511 189.1C226.814 189.812 227.321 190.319 228.033 190.622C228.745 190.914 229.725 191.06 230.973 191.06Z" fill="black"/>
</svg>
