<svg width="348" height="218" viewBox="0 0 348 218" fill="none" xmlns="http://www.w3.org/2000/svg">
<path d="M22.16 2.19995C11.2 2.19995 2.29004 11.12 2.29004 22.08V133.04H344.84V2.19995H22.16Z" fill="black"/>
<path d="M2 194.74C2 205.7 10.92 214.62 21.88 214.62H324.67C335.63 214.62 344.55 205.7 344.55 194.74V138H2V194.74Z" fill="black"/>
<path d="M246.72 45.8098V51.2598H284.21L246.72 88.7598L250.57 92.6098L297.38 45.8098H246.72Z" fill="#F7B749"/>
<path d="M302.83 40.3599L308.28 34.9099H246.72V40.3599H302.83Z" fill="#ED362F"/>
<path d="M306.68 44.21V100.32H312.13V38.76L306.68 44.21Z" fill="#43B85C"/>
<path d="M301.23 100.32V49.6599L254.42 96.4699L258.28 100.32L295.78 62.8299V100.32H301.23Z" fill="#2CB4E2"/>
<path d="M43.8302 62.6799C40.8202 62.6799 38.5902 61.9599 37.1502 60.5199C35.7102 59.0799 34.9902 56.8499 34.9902 53.8399V44.7199C34.9902 41.6799 35.7102 39.4499 37.1602 38.0199C38.6102 36.5899 40.8302 35.8899 43.8302 35.9199H48.5602C51.5902 35.9199 53.8202 36.6399 55.2502 38.0699C56.6802 39.4999 57.4002 41.7299 57.4002 44.7599V53.8399C57.4002 56.8499 56.6802 59.0799 55.2502 60.5199C53.8202 61.9599 51.5902 62.6799 48.5602 62.6799H43.8302ZM43.8302 59.3599H48.5602C49.9702 59.3599 51.0702 59.1899 51.8802 58.8599C52.6802 58.5199 53.2502 57.9599 53.5902 57.1499C53.9302 56.3499 54.0902 55.2399 54.0902 53.8299V44.7499C54.0902 43.3599 53.9202 42.2599 53.5902 41.4599C53.2502 40.6599 52.6802 40.0899 51.8802 39.7399C51.0802 39.3999 49.9702 39.2299 48.5602 39.2299H43.8302C42.4402 39.2199 41.3402 39.3799 40.5302 39.6999C39.7202 40.0199 39.1602 40.5899 38.8102 41.3999C38.4702 42.1999 38.3002 43.3099 38.3002 44.7199V53.8399C38.3002 55.2499 38.4702 56.3499 38.8002 57.1599C39.1402 57.9599 39.7102 58.5299 40.5102 58.8699C41.3102 59.2099 42.4202 59.3699 43.8302 59.3699V59.3599Z" fill="white"/>
<path d="M65.93 70.5699C64.82 70.5699 64.27 70.0199 64.27 68.9099V44.3299C64.27 43.2199 64.82 42.6699 65.93 42.6699C67.04 42.6699 67.59 43.2199 67.59 44.3299V44.8199C68.3 44.1099 69.18 43.5699 70.22 43.2099C71.27 42.8499 72.44 42.6699 73.74 42.6699H75.24C77.87 42.6699 79.82 43.2999 81.08 44.5599C82.34 45.8199 82.97 47.7699 82.97 50.3999V54.9399C82.97 57.5599 82.34 59.4999 81.08 60.7699C79.82 62.0399 77.87 62.6699 75.24 62.6699H67.58V68.9099C67.58 70.0199 67.03 70.5699 65.92 70.5699H65.93ZM67.59 59.3599H75.25C76.97 59.3599 78.14 59.0499 78.75 58.4299C79.36 57.8099 79.67 56.6499 79.67 54.9399V50.3999C79.67 48.6799 79.37 47.5099 78.75 46.8999C78.14 46.2899 76.97 45.9799 75.25 45.9799H73.75C72.1 45.9799 70.68 46.1799 69.49 46.5699C68.29 46.9599 67.66 47.5899 67.6 48.4399V59.3499L67.59 59.3599Z" fill="white"/>
<path d="M92.2104 54.0399V54.9899C92.2104 56.6899 92.5204 57.8399 93.1404 58.4499C93.7604 59.0599 94.9204 59.3699 96.6304 59.3699H99.8704C101.21 59.3699 102.2 59.2499 102.85 58.9999C103.49 58.7499 103.92 58.3099 104.13 57.6799C104.27 57.1799 104.48 56.7999 104.73 56.5399C104.99 56.2799 105.38 56.1399 105.9 56.1399C106.42 56.1399 106.87 56.2899 107.16 56.5699C107.45 56.8599 107.54 57.2799 107.43 57.8299C107.14 59.4599 106.37 60.6799 105.1 61.4799C103.84 62.2799 102.09 62.6799 99.8504 62.6799H96.6104C93.9904 62.6799 92.0504 62.0499 90.7804 60.7899C89.5104 59.5299 88.8804 57.5899 88.8804 54.9899V50.4099C88.8804 47.7399 89.5104 45.7799 90.7804 44.5199C92.0504 43.2599 93.9904 42.6499 96.6104 42.6699H99.8504C102.48 42.6699 104.43 43.2999 105.69 44.5499C106.95 45.8099 107.58 47.7599 107.58 50.3999V52.3699C107.58 53.4799 107.03 54.0299 105.92 54.0299H92.1904L92.2104 54.0399ZM96.6304 45.9899C94.9204 45.9599 93.7604 46.2599 93.1404 46.8799C92.5204 47.4999 92.2104 48.6799 92.2104 50.4099V50.7299H104.29V50.4099C104.29 48.6899 103.98 47.5199 103.37 46.9099C102.76 46.2999 101.59 45.9899 99.8704 45.9899H96.6304Z" fill="white"/>
<path d="M116.13 62.6799C115.03 62.6799 114.47 62.1299 114.47 61.0199V44.3299C114.47 43.2199 115.02 42.6699 116.13 42.6699C117.24 42.6699 117.79 43.2199 117.79 44.3299V44.9799C119.18 43.4399 121.24 42.6699 123.95 42.6699H125.05C127.68 42.6699 129.63 43.2999 130.89 44.5599C132.15 45.8199 132.78 47.7699 132.78 50.3999V61.0199C132.78 62.1299 132.23 62.6799 131.12 62.6799C130.01 62.6799 129.46 62.1299 129.46 61.0199V50.3999C129.46 48.6799 129.15 47.5099 128.52 46.8999C127.89 46.2899 126.73 45.9799 125.04 45.9799H123.94C122.36 45.9799 120.99 46.1599 119.82 46.5199C118.65 46.8799 117.97 47.4499 117.79 48.2299V61.0199C117.79 62.1299 117.24 62.6799 116.13 62.6799Z" fill="white"/>
<path d="M141.85 62.68C141.29 62.68 140.87 62.55 140.6 62.28C140.33 62.01 140.2 61.59 140.2 61.03V37.63C140.2 37.05 140.34 36.63 140.6 36.37C140.87 36.11 141.29 35.98 141.85 35.98C142.41 35.98 142.85 36.11 143.11 36.37C143.37 36.63 143.5 37.05 143.5 37.63V61.03C143.5 61.6 143.37 62.01 143.11 62.28C142.85 62.55 142.43 62.68 141.85 62.68Z" fill="white"/>
<path d="M152.98 62.6799C151.87 62.6799 151.32 62.1299 151.32 61.0199V44.3299C151.32 43.2199 151.87 42.6699 152.98 42.6699C154.09 42.6699 154.64 43.2199 154.64 44.3299V44.9799C156.03 43.4399 158.09 42.6699 160.8 42.6699H161.9C164.53 42.6699 166.48 43.2999 167.74 44.5599C169 45.8199 169.63 47.7699 169.63 50.3999V61.0199C169.63 62.1299 169.08 62.6799 167.97 62.6799C166.86 62.6799 166.31 62.1299 166.31 61.0199V50.3999C166.31 48.6799 166 47.5099 165.37 46.8999C164.75 46.2899 163.59 45.9799 161.89 45.9799H160.79C159.21 45.9799 157.84 46.1599 156.67 46.5199C155.5 46.8799 154.82 47.4499 154.64 48.2299V61.0199C154.64 62.1299 154.09 62.6799 152.98 62.6799Z" fill="white"/>
<path d="M179.46 62.6799C178.36 62.6799 177.8 62.1299 177.8 61.0199V45.9799H176.34C175.24 45.9799 174.68 45.4299 174.68 44.3199C174.68 43.2099 175.23 42.6599 176.34 42.6599H177.8V42.4999C177.8 39.9099 178.42 37.9899 179.67 36.7499C180.92 35.5099 182.83 34.8899 185.41 34.8899C186.36 34.8899 186.83 35.4399 186.83 36.5499C186.83 37.6599 186.36 38.2099 185.41 38.2099C183.75 38.2099 182.62 38.5099 182.02 39.0999C181.41 39.6899 181.11 40.8299 181.11 42.5099V42.6699H185.18C186.28 42.6699 186.84 43.2199 186.84 44.3299C186.84 45.4399 186.29 45.9899 185.18 45.9899H181.11V61.0299C181.11 62.1399 180.56 62.6899 179.45 62.6899L179.46 62.6799Z" fill="white"/>
<path d="M193.55 62.6799C192.44 62.6799 191.89 62.1299 191.89 61.0199V44.3299C191.89 43.2199 192.44 42.6699 193.55 42.6699C194.66 42.6699 195.21 43.2199 195.21 44.3299V45.8699C195.99 44.8199 196.97 44.0199 198.18 43.4799C199.38 42.9399 200.76 42.6699 202.31 42.6699C203.41 42.6699 203.97 43.2199 203.97 44.3299C203.97 45.4399 203.42 45.9899 202.31 45.9899C200.03 45.9899 198.3 46.4099 197.1 47.2499C195.9 48.0899 195.27 49.1999 195.21 50.5799V61.0199C195.21 62.1299 194.66 62.6799 193.55 62.6799Z" fill="white"/>
<path d="M213.32 62.6799C211.11 62.6799 209.46 62.1399 208.39 61.0599C207.32 59.9799 206.77 58.3399 206.77 56.1299C206.77 53.9199 207.31 52.2799 208.38 51.1999C209.45 50.1199 211.1 49.5799 213.32 49.5799H221.67C221.59 48.1999 221.23 47.2599 220.58 46.7499C219.94 46.2399 218.83 45.9899 217.27 45.9899H214.98C213.66 45.9899 212.68 46.0799 212.04 46.2599C211.39 46.4399 210.94 46.7599 210.68 47.2199C210.44 47.7699 210.2 48.1499 209.95 48.3599C209.7 48.5699 209.33 48.6799 208.83 48.6799C208.28 48.6799 207.84 48.5299 207.53 48.2199C207.22 47.9099 207.12 47.4999 207.25 46.9899C207.64 45.4999 208.47 44.4199 209.72 43.7199C210.98 43.0299 212.73 42.6799 214.98 42.6799H217.27C219.9 42.6799 221.85 43.3099 223.11 44.5699C224.37 45.8299 225 47.7799 225 50.4099V61.0299C225 62.1399 224.45 62.6899 223.34 62.6899C222.23 62.6899 221.68 62.1399 221.68 61.0299V60.1399C220.27 61.8399 218.22 62.6899 215.52 62.6899H213.31L213.32 62.6799ZM213.32 59.3599H215.53C216.5 59.3599 217.42 59.2699 218.27 59.0899C219.12 58.9099 219.86 58.5899 220.47 58.1099C221.08 57.6299 221.49 56.9599 221.68 56.0799V52.8799H213.31C212.01 52.8799 211.14 53.0999 210.72 53.5299C210.3 53.9599 210.08 54.8299 210.08 56.1099C210.08 57.3899 210.29 58.2799 210.72 58.6999C211.15 59.1299 212.01 59.3399 213.31 59.3399L213.32 59.3599Z" fill="white"/>
<path d="M40.9202 100.32C38.9002 100.32 37.4102 99.8399 36.4402 98.8699C35.4702 97.8999 34.9902 96.4099 34.9902 94.3899V83.4899C34.9902 83.1199 35.0802 82.8399 35.2702 82.6599C35.4602 82.4799 35.7302 82.3799 36.1002 82.3799C36.4702 82.3799 36.7502 82.4699 36.9302 82.6599C37.1102 82.8499 37.2102 83.1199 37.2102 83.4899V94.3899C37.2102 95.3299 37.3202 96.0699 37.5502 96.6099C37.7802 97.1499 38.1602 97.5299 38.6902 97.7499C39.2302 97.9799 39.9702 98.0899 40.9102 98.0899H44.0802C45.0202 98.0899 45.7602 97.9799 46.3002 97.7499C46.8402 97.5299 47.2202 97.1399 47.4402 96.6099C47.6702 96.0699 47.7802 95.3299 47.7802 94.3899V83.4899C47.7802 83.1199 47.8702 82.8399 48.0602 82.6599C48.2502 82.4799 48.5202 82.3799 48.8902 82.3799C49.2602 82.3799 49.5402 82.4699 49.7202 82.6599C49.9002 82.8499 50.0002 83.1199 50.0002 83.4899V94.3899C50.0002 96.4099 49.5202 97.8999 48.5602 98.8699C47.6002 99.8399 46.1002 100.32 44.0802 100.32H40.9102H40.9202Z" fill="white"/>
<path d="M62.2501 100.32C60.7401 100.32 59.5701 100.02 58.7301 99.4099C57.8901 98.7999 57.3601 97.8599 57.1501 96.5899C57.1101 96.1999 57.1901 95.9099 57.3901 95.7199C57.5801 95.5299 57.8701 95.4299 58.2401 95.4299C58.6101 95.4299 58.8801 95.5199 59.0501 95.6899C59.2201 95.8699 59.3401 96.1399 59.4001 96.5099C59.5301 97.1199 59.8201 97.5399 60.2501 97.7599C60.6901 97.9899 61.3501 98.0999 62.2501 98.0999H66.0601C67.2001 98.0999 67.9701 97.8999 68.3801 97.4899C68.7901 97.0799 68.9901 96.3199 68.9901 95.1999C68.9901 94.0799 68.7801 93.2799 68.3601 92.8699C67.9401 92.4499 67.1701 92.2399 66.0601 92.2399H62.7801C61.1101 92.2399 59.8801 91.8299 59.0701 91.0199C58.2601 90.2099 57.8601 88.9599 57.8601 87.2999C57.8601 85.6399 58.2601 84.4099 59.0601 83.6099C59.8601 82.8099 61.0901 82.4099 62.7601 82.4099H65.9101C67.3101 82.4099 68.4101 82.6999 69.2101 83.2699C70.0101 83.8399 70.5101 84.7199 70.7201 85.8999C70.7701 86.2799 70.7001 86.5699 70.5101 86.7699C70.3201 86.9699 70.0201 87.0699 69.6401 87.0699C69.2901 87.0699 69.0201 86.9799 68.8501 86.7899C68.6701 86.5999 68.5601 86.3399 68.5101 85.9799C68.3701 85.4599 68.1001 85.0999 67.7001 84.9199C67.3001 84.7299 66.7101 84.6299 65.9101 84.6299H62.7601C61.7001 84.6299 60.9901 84.8199 60.6301 85.1899C60.2701 85.5599 60.0901 86.2699 60.0901 87.2999C60.0901 88.3299 60.2701 89.0599 60.6401 89.4399C61.0101 89.8299 61.7301 90.0199 62.7801 90.0199H66.0601C67.8001 90.0199 69.0901 90.4399 69.9401 91.2899C70.7901 92.1399 71.2201 93.4399 71.2201 95.2099C71.2201 96.9799 70.8001 98.2599 69.9501 99.0899C69.1001 99.9199 67.8101 100.34 66.0601 100.34H62.2501V100.32Z" fill="white"/>
<path d="M79.9801 100.32C79.2401 100.32 78.8701 99.9499 78.8701 99.2099V83.4999C78.8701 82.7599 79.2401 82.3899 79.9801 82.3899H89.4801C90.2201 82.3899 90.5901 82.7599 90.5901 83.4999C90.5901 84.2399 90.2201 84.6099 89.4801 84.6099H81.0901V90.1599H86.3501C87.0901 90.1599 87.4601 90.5299 87.4601 91.2699C87.4601 92.0099 87.0901 92.3799 86.3501 92.3799H81.0901V98.0899H89.4801C90.2201 98.0899 90.5901 98.4599 90.5901 99.1999C90.5901 99.9399 90.2201 100.31 89.4801 100.31H79.9801V100.32Z" fill="white"/>
<path d="M109.52 100.37C109.23 100.55 108.95 100.61 108.69 100.54C108.43 100.47 108.2 100.29 108.02 99.9999L103.92 93.1799H100.22V99.2099C100.22 99.9499 99.85 100.32 99.11 100.32C98.37 100.32 98 99.9499 98 99.2099V83.4999C98 82.7599 98.37 82.3899 99.11 82.3899H105.3C106.91 82.3899 108.15 82.8199 109.01 83.6799C109.87 84.5399 110.3 85.7799 110.3 87.3899V88.1799C110.3 89.5799 109.97 90.6999 109.32 91.5299C108.67 92.3599 107.72 92.8799 106.49 93.0799L109.95 98.8599C110.29 99.4799 110.14 99.9799 109.53 100.37H109.52ZM100.21 90.9499H105.29C106.29 90.9499 107.01 90.7399 107.43 90.3199C107.85 89.8999 108.07 89.1799 108.07 88.1799V87.3899C108.07 86.3899 107.86 85.6799 107.43 85.2499C107.01 84.8199 106.29 84.6099 105.29 84.6099H100.21V90.9599V90.9499Z" fill="white"/>
<path d="M133.41 100.32C131.39 100.32 129.9 99.84 128.93 98.87C127.96 97.9 127.48 96.41 127.48 94.39V88.31C127.48 86.27 127.96 84.77 128.92 83.81C129.88 82.84 131.37 82.37 133.38 82.39H136.58C138.24 82.39 139.5 82.73 140.38 83.42C141.25 84.1 141.76 85.18 141.9 86.65C141.95 87.02 141.88 87.3 141.69 87.5C141.5 87.69 141.21 87.79 140.84 87.79C140.17 87.79 139.78 87.42 139.68 86.68C139.59 85.87 139.31 85.32 138.84 85.04C138.37 84.76 137.62 84.62 136.59 84.62H133.39C132.46 84.62 131.72 84.72 131.19 84.94C130.66 85.16 130.28 85.54 130.05 86.08C129.82 86.62 129.71 87.37 129.71 88.32V94.4C129.71 95.34 129.82 96.08 130.05 96.62C130.27 97.16 130.66 97.54 131.19 97.76C131.73 97.99 132.47 98.1 133.41 98.1H136.59C137.41 98.1 138.05 98.01 138.51 97.83C138.97 97.65 139.3 97.33 139.48 96.87C139.67 96.41 139.76 95.76 139.76 94.93V93.69L137.7 93.66C136.96 93.66 136.59 93.29 136.59 92.55C136.59 91.81 136.96 91.44 137.7 91.44L140.88 91.47C141.62 91.47 141.99 91.84 141.99 92.58V94.93C141.99 96.81 141.55 98.18 140.68 99.04C139.81 99.9 138.45 100.33 136.59 100.33H133.41V100.32Z" fill="white"/>
<path d="M160.64 100.37C160.35 100.55 160.07 100.61 159.81 100.54C159.55 100.47 159.32 100.29 159.14 99.9999L155.04 93.1799H151.34V99.2099C151.34 99.9499 150.97 100.32 150.23 100.32C149.49 100.32 149.12 99.9499 149.12 99.2099V83.4999C149.12 82.7599 149.49 82.3899 150.23 82.3899H156.42C158.03 82.3899 159.27 82.8199 160.13 83.6799C160.99 84.5399 161.42 85.7799 161.42 87.3899V88.1799C161.42 89.5799 161.09 90.6999 160.44 91.5299C159.79 92.3599 158.84 92.8799 157.61 93.0799L161.07 98.8599C161.41 99.4799 161.26 99.9799 160.65 100.37H160.64ZM151.33 90.9499H156.41C157.41 90.9499 158.13 90.7399 158.55 90.3199C158.97 89.8999 159.19 89.1799 159.19 88.1799V87.3899C159.19 86.3899 158.98 85.6799 158.55 85.2499C158.13 84.8199 157.41 84.6099 156.41 84.6099H151.33V90.9599V90.9499Z" fill="white"/>
<path d="M173.71 100.32C171.69 100.32 170.2 99.84 169.23 98.87C168.26 97.9 167.78 96.41 167.78 94.39V88.28C167.78 86.24 168.27 84.75 169.24 83.79C170.21 82.83 171.7 82.36 173.71 82.38H176.89C178.92 82.38 180.41 82.86 181.37 83.82C182.33 84.78 182.81 86.28 182.81 88.3V94.38C182.81 96.4 182.33 97.89 181.37 98.86C180.41 99.83 178.91 100.31 176.89 100.31H173.71V100.32ZM173.71 98.1H176.89C177.83 98.1 178.57 97.99 179.11 97.76C179.65 97.54 180.03 97.15 180.25 96.62C180.48 96.08 180.59 95.34 180.59 94.4V88.32C180.59 87.39 180.48 86.65 180.25 86.11C180.02 85.57 179.64 85.19 179.11 84.96C178.57 84.73 177.83 84.62 176.89 84.62H173.71C172.78 84.62 172.04 84.72 171.5 84.94C170.96 85.16 170.58 85.54 170.35 86.08C170.12 86.62 170.01 87.36 170.01 88.3V94.41C170.01 95.35 170.12 96.09 170.35 96.63C170.57 97.17 170.96 97.55 171.49 97.77C172.03 98 172.77 98.11 173.71 98.11V98.1Z" fill="white"/>
<path d="M196.24 100.32C194.22 100.32 192.73 99.8399 191.76 98.8699C190.79 97.8999 190.31 96.4099 190.31 94.3899V83.4899C190.31 83.1199 190.4 82.8399 190.59 82.6599C190.78 82.4799 191.05 82.3799 191.42 82.3799C191.79 82.3799 192.07 82.4699 192.25 82.6599C192.43 82.8499 192.53 83.1199 192.53 83.4899V94.3899C192.53 95.3299 192.64 96.0699 192.87 96.6099C193.1 97.1499 193.48 97.5299 194.01 97.7499C194.55 97.9799 195.29 98.0899 196.23 98.0899H199.4C200.34 98.0899 201.08 97.9799 201.62 97.7499C202.16 97.5299 202.54 97.1399 202.76 96.6099C202.99 96.0699 203.1 95.3299 203.1 94.3899V83.4899C203.1 83.1199 203.19 82.8399 203.38 82.6599C203.57 82.4799 203.84 82.3799 204.21 82.3799C204.58 82.3799 204.86 82.4699 205.04 82.6599C205.22 82.8499 205.32 83.1199 205.32 83.4899V94.3899C205.32 96.4099 204.84 97.8999 203.88 98.8699C202.92 99.8399 201.42 100.32 199.4 100.32H196.23H196.24Z" fill="white"/>
<path d="M213.81 100.32C213.07 100.32 212.7 99.9499 212.7 99.2099V83.4999C212.7 82.7599 213.07 82.3899 213.81 82.3899H220C221.61 82.3899 222.85 82.8199 223.71 83.6799C224.57 84.5399 225 85.7799 225 87.3899V88.1799C225 89.7899 224.57 91.0299 223.71 91.8899C222.85 92.7499 221.61 93.1799 220 93.1799H214.92V99.2099C214.92 99.9499 214.55 100.32 213.81 100.32ZM214.92 90.9599H220C221 90.9599 221.72 90.7499 222.14 90.3299C222.56 89.9099 222.78 89.1899 222.78 88.1899V87.3999C222.78 86.3999 222.57 85.6899 222.14 85.2599C221.72 84.8299 221 84.6199 220 84.6199H214.92V90.9699V90.9599Z" fill="white"/>
<path d="M109.313 188C108.333 188 107.843 187.51 107.843 186.53V165.74C107.843 164.76 108.333 164.27 109.313 164.27C109.955 164.27 110.491 164.585 110.923 165.215L119.183 177.64L118.553 177.745L126.883 165.215C127.28 164.585 127.875 164.27 128.668 164.27C129.461 164.27 129.858 164.76 129.858 165.74V186.53C129.858 187.51 129.368 188 128.388 188C127.408 188 126.918 187.51 126.918 186.53V168.68L127.828 168.995L120.478 179.81C120.046 180.44 119.451 180.755 118.693 180.755C118.168 180.755 117.69 180.44 117.258 179.81L109.908 168.995L110.783 169.24V186.53C110.783 187.51 110.293 188 109.313 188ZM139.655 188C138.675 188 138.185 187.51 138.185 186.53V165.74C138.185 164.76 138.675 164.27 139.655 164.27H152.22C153.2 164.27 153.69 164.76 153.69 165.74C153.69 166.72 153.2 167.21 152.22 167.21H141.125V174.56H148.09C149.07 174.56 149.56 175.05 149.56 176.03C149.56 177.01 149.07 177.5 148.09 177.5H141.125V185.06H152.22C153.2 185.06 153.69 185.55 153.69 186.53C153.69 187.51 153.2 188 152.22 188H139.655ZM159.694 187.685C158.912 187.148 158.796 186.46 159.344 185.62L165.749 176.17L158.994 166.65C158.469 165.88 158.597 165.192 159.379 164.585C160.184 164.037 160.861 164.165 161.409 164.97L167.674 173.755L173.974 164.97C174.581 164.188 175.257 164.083 176.004 164.655C176.797 165.238 176.914 165.915 176.354 166.685L169.459 176.275L176.074 185.585C176.622 186.39 176.494 187.09 175.689 187.685C174.884 188.233 174.207 188.105 173.659 187.3L167.569 178.725L161.759 187.335C161.222 188.093 160.534 188.21 159.694 187.685ZM184.753 188C184.251 188 183.878 187.883 183.633 187.65C183.4 187.405 183.283 187.032 183.283 186.53V165.775C183.283 165.262 183.4 164.888 183.633 164.655C183.878 164.422 184.251 164.305 184.753 164.305C185.266 164.305 185.64 164.422 185.873 164.655C186.106 164.888 186.223 165.262 186.223 165.775V186.53C186.223 187.032 186.106 187.405 185.873 187.65C185.64 187.883 185.266 188 184.753 188ZM201.553 188C198.881 188 196.904 187.364 195.62 186.092C194.349 184.809 193.713 182.832 193.713 180.16V172.11C193.713 169.415 194.349 167.432 195.62 166.16C196.892 164.877 198.858 164.247 201.518 164.27H205.753C207.946 164.27 209.62 164.725 210.775 165.635C211.93 166.533 212.601 167.957 212.788 169.905C212.858 170.395 212.765 170.768 212.508 171.025C212.251 171.282 211.878 171.41 211.388 171.41C210.501 171.41 209.988 170.92 209.848 169.94C209.731 168.867 209.358 168.143 208.728 167.77C208.11 167.397 207.118 167.21 205.753 167.21H201.518C200.281 167.198 199.307 167.338 198.595 167.63C197.895 167.922 197.394 168.429 197.09 169.152C196.799 169.864 196.653 170.85 196.653 172.11V180.16C196.653 181.408 196.799 182.388 197.09 183.1C197.394 183.812 197.901 184.319 198.613 184.622C199.325 184.914 200.305 185.06 201.553 185.06H205.753C207.118 185.06 208.11 184.873 208.728 184.5C209.358 184.115 209.731 183.392 209.848 182.33C209.988 181.35 210.501 180.86 211.388 180.86C211.878 180.86 212.251 180.988 212.508 181.245C212.765 181.502 212.858 181.875 212.788 182.365C212.601 184.325 211.93 185.754 210.775 186.652C209.62 187.551 207.946 188 205.753 188H201.553ZM226.973 188C224.301 188 222.324 187.364 221.041 186.092C219.769 184.809 219.133 182.832 219.133 180.16V172.075C219.133 169.38 219.775 167.402 221.058 166.142C222.341 164.871 224.313 164.247 226.973 164.27H231.173C233.856 164.27 235.834 164.906 237.106 166.177C238.377 167.449 239.013 169.427 239.013 172.11V180.16C239.013 182.832 238.377 184.809 237.106 186.092C235.834 187.364 233.856 188 231.173 188H226.973ZM226.973 185.06H231.173C232.421 185.06 233.401 184.914 234.113 184.622C234.825 184.319 235.326 183.812 235.618 183.1C235.921 182.388 236.073 181.408 236.073 180.16V172.11C236.073 170.873 235.921 169.899 235.618 169.187C235.326 168.476 234.825 167.968 234.113 167.665C233.401 167.362 232.421 167.21 231.173 167.21H226.973C225.736 167.198 224.762 167.338 224.051 167.63C223.339 167.922 222.831 168.423 222.528 169.135C222.225 169.847 222.073 170.827 222.073 172.075V180.16C222.073 181.408 222.219 182.388 222.511 183.1C222.814 183.812 223.321 184.319 224.033 184.622C224.745 184.914 225.725 185.06 226.973 185.06Z" fill="white"/>
</svg>
