<?xml version="1.0" encoding="utf-8"?>
<!-- Generator: Adobe Illustrator 26.5.2, SVG Export Plug-In . SVG Version: 6.00 Build 0)  -->
<svg version="1.1" id="Layer_1" xmlns="http://www.w3.org/2000/svg" xmlns:xlink="http://www.w3.org/1999/xlink" x="0px" y="0px"
	 viewBox="0 0 420 420" style="enable-background:new 0 0 420 420;" xml:space="preserve">
<style type="text/css">
	.st0{fill:none;stroke:#F66988;stroke-width:0.98;stroke-miterlimit:10;}
	.st1{fill:#EFEFEF;}
	.st2{fill:#F20B4B;}
	.st3{fill:none;}
	.st4{fill:#023279;}
	.st5{fill:#19ADE5;}
	.st6{fill:#9C0333;}
	.st7{fill:none;stroke:#023279;stroke-width:2.0369;stroke-miterlimit:10;}
</style>
<g>
	<g>
		<ellipse class="st0" cx="210.7" cy="209.9" rx="83.2" ry="175.6"/>
		<ellipse class="st0" cx="210.7" cy="209.9" rx="175.6" ry="83.2"/>
	</g>
	<g>
		<g>
			
				<ellipse transform="matrix(0.7071 -0.7071 0.7071 0.7071 -86.7384 210.4695)" class="st0" cx="210.7" cy="209.9" rx="56" ry="212"/>
		</g>
		<g>
			
				<ellipse transform="matrix(0.7071 -0.7071 0.7071 0.7071 -86.7384 210.4695)" class="st0" cx="210.7" cy="209.9" rx="212" ry="56"/>
		</g>
	</g>
</g>
<circle class="st1" cx="210.7" cy="209.9" r="48.9"/>
<circle class="st0" cx="210.7" cy="209.9" r="179.4"/>
<g>
	<path class="st2" d="M232.4,183.8H189c-2.7,0-5,2.2-5,5v11.7h12.1v-1.9c0-1.5,1.2-2.7,2.7-2.7h24c1.5,0,2.7,1.2,2.7,2.7v1.9h12.1
		v-11.7C237.4,186,235.2,183.8,232.4,183.8z"/>
	<path class="st2" d="M225.3,221.3c0,1.5-1.2,2.7-2.7,2.7h-24c-1.5,0-2.7-1.2-2.7-2.7v-1.9H184v11.7c0,2.7,2.2,5,5,5h43.5
		c2.7,0,5-2.2,5-5v-11.7h-12.1L225.3,221.3L225.3,221.3z"/>
	<rect x="184" y="203.9" class="st2" width="12.1" height="12.1"/>
	<rect x="225.3" y="203.9" class="st2" width="12.1" height="12.1"/>
</g>
<circle class="st1" cx="286.5" cy="285.7" r="24.4"/>
<circle class="st1" cx="360.6" cy="60" r="30.2"/>
<circle class="st1" cx="284.1" cy="136.6" r="24.4"/>
<circle class="st1" cx="210.7" cy="385.5" r="30.2"/>
<circle class="st1" cx="60.8" cy="359.9" r="30.2"/>
<circle class="st1" cx="210.9" cy="34.5" r="30.2"/>
<path class="st3" d="M286.5,271c-3.2,0-5.8,2.6-5.8,5.8v6.9c0.9-0.3,1.9-0.5,2.9-0.5h5.9c1,0,2,0.2,2.9,0.5v-6.9
	C292.3,273.6,289.7,271,286.5,271z"/>
<path class="st2" d="M292.3,287.8h2v-3.1c-0.6-0.4-1.3-0.7-2-0.9V287.8z"/>
<path class="st2" d="M280.6,287.8v-4.1c-0.7,0.2-1.4,0.6-2,0.9v3.1H280.6z"/>
<g>
	<path class="st4" d="M280.6,276.9c0-3.2,2.6-5.8,5.8-5.8c3.2,0,5.8,2.6,5.8,5.8v6.9c0.7,0.2,1.4,0.6,2,0.9v-7.8
		c0-4.3-3.5-7.8-7.8-7.8s-7.8,3.5-7.8,7.8v7.8c0.6-0.4,1.3-0.7,2-0.9V276.9z"/>
	<path class="st2" d="M294.3,284.7c-0.6-0.4-1.3-0.7-2-0.9c-0.9-0.3-1.9-0.5-2.9-0.5h-5.9c-1,0-2,0.2-2.9,0.5
		c-0.7,0.2-1.4,0.6-2,0.9c-2.5,1.6-4.2,4.4-4.2,7.7c0,5,4.1,9.1,9.1,9.1h5.9c5,0,9.1-4.1,9.1-9.1
		C298.5,289.1,296.8,286.3,294.3,284.7z"/>
	<path class="st4" d="M288.4,291.1c0-1.1-0.9-2-2-2c-1.1,0-2,0.9-2,2c0,0.9,0.6,1.6,1.4,1.8v2.5c0,0.3,0.3,0.6,0.6,0.6
		c0.3,0,0.6-0.3,0.6-0.6v-2.5C287.9,292.6,288.4,291.9,288.4,291.1z"/>
</g>
<path class="st5" d="M198.9,383.6h6.1c0.1-1.6,0.7-3.1,1.8-4.2l-3.5-3.5c-0.7,0.5-1.5,0.9-2.5,0.9c-0.9,0-1.8-0.3-2.4-0.8
	c-1,1.6-1.7,3.4-2,5.3C197.6,381.3,198.7,382.3,198.9,383.6z"/>
<path class="st5" d="M203.9,375.1l3.5,3.5c1.3-1.1,2.9-1.8,4.7-1.8c1.8,0,3.5,0.7,4.7,1.8l4.2-4.2c-0.3-0.5-0.5-1-0.5-1.7
	c0-0.8,0.3-1.5,0.8-2c-2.6-1.8-5.8-2.9-9.2-2.9c-3,0-5.8,0.8-8.2,2.3c0.5,0.7,0.8,1.5,0.8,2.4C204.7,373.6,204.4,374.4,203.9,375.1z
	"/>
<path class="st5" d="M211.6,397.3v-6.1c-3.6-0.2-6.4-3.1-6.7-6.7h-6.1c-0.2,1.3-1.3,2.3-2.6,2.4c1.2,6.6,6.4,11.8,13,13
	C209.4,398.6,210.4,397.5,211.6,397.3z"/>
<path class="st5" d="M228.2,384.1c0-3.4-1.1-6.6-2.9-9.2c-0.5,0.5-1.2,0.8-2,0.8c-0.6,0-1.2-0.2-1.7-0.5l-4.2,4.2
	c1.1,1.3,1.8,2.9,1.8,4.7c0,3.8-3,6.9-6.7,7.2v6.1c1.3,0.2,2.3,1.3,2.4,2.6C222.5,398.5,228.2,392,228.2,384.1z"/>
<path class="st4" d="M221,374.5l-4.2,4.2c0.2,0.2,0.5,0.4,0.7,0.7l4.2-4.2C221.4,375,221.2,374.8,221,374.5z"/>
<path class="st4" d="M207.4,378.6l-3.5-3.5c-0.2,0.3-0.4,0.5-0.7,0.7l3.5,3.5C206.9,379.1,207.2,378.9,207.4,378.6z"/>
<path class="st4" d="M205,383.6h-6.1c0,0.2,0,0.3,0,0.5c0,0.2,0,0.3,0,0.5h6.1c0-0.2,0-0.3,0-0.5C204.9,383.9,205,383.7,205,383.6z"
	/>
<path class="st4" d="M211.6,391.2v6.1c0.2,0,0.3,0,0.5,0c0.2,0,0.3,0,0.5,0v-6.1c-0.2,0-0.3,0-0.5,0
	C212,391.2,211.8,391.2,211.6,391.2z"/>
<path class="st2" d="M221,374.5l1.3-1.3l0.7,0.7l-1.3,1.3c0.5,0.3,1,0.5,1.7,0.5c0.8,0,1.5-0.3,2-0.8c-1.1-1.6-2.5-3-4.1-4.1
	c-0.5,0.5-0.8,1.2-0.8,2C220.5,373.4,220.7,374,221,374.5z"/>
<path class="st5" d="M222.3,373.2l-1.3,1.3c0.2,0.3,0.4,0.5,0.7,0.7l1.3-1.3L222.3,373.2z"/>
<path class="st2" d="M223.4,369.9c-0.8,0-1.6,0.3-2.1,0.9c-0.5,0.5-0.8,1.2-0.8,2c0,0.6,0.2,1.2,0.5,1.7c0.2,0.3,0.4,0.5,0.7,0.7
	c0.5,0.3,1,0.5,1.7,0.5c0.8,0,1.5-0.3,2-0.8c0.5-0.5,0.9-1.3,0.9-2.1C226.3,371.2,225,369.9,223.4,369.9z"/>
<path class="st2" d="M212.6,397.3v2.8c0.8,0,1.6-0.1,2.4-0.2C214.9,398.6,213.9,397.5,212.6,397.3z"/>
<path class="st2" d="M211.6,397.3c-1.3,0.2-2.3,1.3-2.4,2.6c0.8,0.1,1.6,0.2,2.4,0.2V397.3z"/>
<path class="st5" d="M211.6,400.1v0.3h1v-0.3c-0.2,0-0.3,0-0.5,0S211.8,400.1,211.6,400.1z"/>
<path class="st6" d="M211.6,400.1v0.3h1v-0.3c-0.2,0-0.3,0-0.5,0S211.8,400.1,211.6,400.1z"/>
<path class="st5" d="M211.6,397.3v2.8c0.2,0,0.3,0,0.5,0s0.3,0,0.5,0v-2.8c-0.2,0-0.3,0-0.5,0C212,397.3,211.8,397.3,211.6,397.3z"
	/>
<path class="st2" d="M215,399.9c-0.1-1.3-1.1-2.4-2.4-2.6c-0.2,0-0.3,0-0.5,0c-0.2,0-0.3,0-0.5,0c-1.3,0.2-2.3,1.3-2.4,2.6
	c0,0.1,0,0.2,0,0.3c0,1.6,1.3,2.9,2.9,2.9c1.6,0,2.9-1.3,2.9-2.9C215,400.1,215,400,215,399.9z"/>
<path class="st2" d="M203.9,375.1c0.5-0.7,0.9-1.5,0.9-2.5c0-0.9-0.3-1.8-0.8-2.4c-1,0.6-1.9,1.3-2.8,2.1L203.9,375.1z"/>
<path class="st2" d="M203.2,375.8l-2.8-2.8c-0.8,0.9-1.5,1.8-2.1,2.8c0.7,0.5,1.5,0.8,2.4,0.8C201.7,376.7,202.5,376.3,203.2,375.8z
	"/>
<path class="st5" d="M201.1,372.3l-2.8-2.8c-0.3,0.2-0.5,0.4-0.7,0.7l2.8,2.8C200.6,372.8,200.9,372.6,201.1,372.3z"/>
<path class="st5" d="M203.9,375.1l-2.8-2.8c-0.2,0.2-0.5,0.5-0.7,0.7l2.8,2.8C203.4,375.6,203.7,375.4,203.9,375.1z"/>
<path class="st2" d="M203.9,370.2c-0.7-1-1.9-1.6-3.2-1.6c-0.9,0-1.8,0.3-2.5,0.9c-0.3,0.2-0.5,0.4-0.7,0.7
	c-0.5,0.7-0.9,1.5-0.9,2.5c0,1.3,0.6,2.5,1.6,3.2c0.7,0.5,1.5,0.8,2.4,0.8c0.9,0,1.8-0.3,2.5-0.9c0.3-0.2,0.5-0.4,0.7-0.7
	c0.5-0.7,0.9-1.5,0.9-2.5C204.7,371.7,204.4,370.9,203.9,370.2z"/>
<path class="st2" d="M198.9,384.5h-1.1v-1h1.1c-0.2-1.3-1.3-2.3-2.6-2.4c-0.2,0.9-0.3,1.9-0.3,2.9c0,1,0.1,1.9,0.3,2.9
	C197.6,386.8,198.7,385.8,198.9,384.5z"/>
<path class="st5" d="M198.9,383.6h-1.1v1h1.1c0-0.2,0-0.3,0-0.5C198.9,383.9,198.9,383.7,198.9,383.6z"/>
<path class="st2" d="M198.9,383.6c-0.2-1.3-1.3-2.3-2.6-2.4c-0.1,0-0.2,0-0.3,0c-1.6,0-2.9,1.3-2.9,2.9s1.3,2.9,2.9,2.9
	c0.1,0,0.2,0,0.3,0c1.3-0.1,2.4-1.1,2.6-2.4c0-0.2,0-0.3,0-0.5C198.9,383.9,198.9,383.7,198.9,383.6z"/>
<path class="st2" d="M206.7,379.3c-1,1.1-1.6,2.6-1.8,4.2h6L206.7,379.3z"/>
<path class="st2" d="M212.6,391.2c3.7-0.3,6.7-3.4,6.7-7.2c0-1.8-0.7-3.5-1.8-4.7l-4.9,4.9V391.2z"/>
<path class="st2" d="M205,384.5c0.2,3.6,3.1,6.4,6.7,6.7v-6.7H205z"/>
<path class="st2" d="M216.9,378.6c-1.3-1.1-2.9-1.8-4.7-1.8c-1.8,0-3.5,0.7-4.7,1.8l4.7,4.7L216.9,378.6z"/>
<path class="st5" d="M216.9,378.6l-4.7,4.7l0.3,0.3l-0.3,0.3h0.5v0.2l4.9-4.9C217.3,379.1,217.1,378.9,216.9,378.6z"/>
<path class="st5" d="M211.9,383.6l0.2-0.2l-4.7-4.7c-0.2,0.2-0.5,0.4-0.7,0.7l4.2,4.2H211.9z"/>
<polygon class="st5" points="212.1,383.6 212.1,384.1 212.5,383.7 212.1,383.4 211.9,383.6 "/>
<polygon class="st6" points="212.1,383.6 212.1,384.1 212.5,383.7 212.1,383.4 211.9,383.6 "/>
<path class="st5" d="M211.6,384.3l-0.7-0.7h-6c0,0.2,0,0.3,0,0.5c0,0.2,0,0.3,0,0.5h6.7V384.3z"/>
<polygon class="st5" points="211.9,383.6 211,383.6 211.6,384.3 211.6,384.1 212.1,384.1 211.8,383.7 "/>
<polygon class="st6" points="211.9,383.6 211,383.6 211.6,384.3 211.6,384.1 212.1,384.1 211.8,383.7 "/>
<polygon class="st5" points="211.9,383.6 211.8,383.7 212.1,384.1 212.1,383.6 "/>
<polygon class="st6" points="211.9,383.6 211.8,383.7 212.1,384.1 212.1,383.6 "/>
<path class="st5" d="M212.5,384.4l-0.3-0.3v0.5h-0.5v6.7c0.2,0,0.3,0,0.5,0c0.2,0,0.3,0,0.5,0v-7L212.5,384.4z"/>
<path class="st2" d="M217.5,379.3c-0.2-0.2-0.4-0.5-0.7-0.7c-1.3-1.1-2.9-1.8-4.7-1.8c-1.8,0-3.5,0.7-4.7,1.8
	c-0.2,0.2-0.5,0.4-0.7,0.7c-1,1.1-1.6,2.6-1.8,4.2c0,0.2,0,0.3,0,0.5c0,0.2,0,0.3,0,0.5c0.2,3.6,3.1,6.4,6.7,6.7c0.2,0,0.3,0,0.5,0
	c0.2,0,0.3,0,0.5,0c3.7-0.3,6.7-3.4,6.7-7.2C219.3,382.2,218.7,380.6,217.5,379.3z"/>
<path class="st2" d="M74.6,356c0-0.2,0-0.3,0-0.5c0-5.9-4.8-10.8-10.8-10.8c-4.4,0-8.1,2.6-9.8,6.3c-0.9-0.7-2-1.1-3.3-1.1
	c-2.9,0-5.3,2.4-5.3,5.3c0,0.4,0,0.7,0.1,1c-3.1,0.9-5.4,3.7-5.4,7.1c0,3.2,2,5.9,4.8,6.9c-0.2-0.7-0.4-1.4-0.4-2.1
	c-0.2-3.6,2.2-6.6,5.4-7.5c-0.2-0.9-0.1-1.9,0.2-2.9c0.7-1.9,2.4-3.2,4.4-3.4c1.4-0.1,2.8,0.3,3.8,1.1c0,0,0-0.1,0-0.1
	c1.6-3.4,6.7-2.2,6.7,1.5v13.8H74c4.1,0,7.4-3.3,7.4-7.4C81.3,359.4,78.4,356.3,74.6,356z"/>
<path class="st4" d="M45,370.2c1.1,2.9,3.9,4.8,7.1,4.8h9.5c1.9,0,3.5-1.6,3.5-3.5v-0.9H47.5C46.7,370.6,45.8,370.5,45,370.2z"/>
<path class="st2" d="M58.5,355.3C58.4,355.4,58.4,355.4,58.5,355.3c-1.1-0.7-2.4-1.2-3.9-1c-2,0.2-3.7,1.5-4.4,3.4
	c-0.4,1-0.4,2-0.2,2.9c-3.2,0.9-5.6,3.9-5.4,7.5c0,0.7,0.2,1.5,0.4,2.1c0.8,0.3,1.6,0.5,2.5,0.5h17.6v-13.8
	C65.1,353.1,60,352,58.5,355.3z"/>
<path class="st4" d="M58.5,355.3C58.4,355.4,58.4,355.4,58.5,355.3c-1.1-0.7-2.4-1.2-3.9-1c-2,0.2-3.7,1.5-4.4,3.4
	c-0.4,1-0.4,2-0.2,2.9c-3.2,0.9-5.6,3.9-5.4,7.5c0,0.7,0.2,1.5,0.4,2.1c0.8,0.3,1.6,0.5,2.5,0.5h17.6v-13.8
	C65.1,353.1,60,352,58.5,355.3z"/>
<path class="st5" d="M374.5,55.5c0-0.2,0-0.3,0-0.5c0-5.9-4.8-10.8-10.8-10.8c-4.4,0-8.1,2.6-9.8,6.3c-0.9-0.7-2-1.1-3.3-1.1
	c-2.9,0-5.3,2.4-5.3,5.3c0,0.4,0,0.7,0.1,1c-3.1,0.9-5.4,3.7-5.4,7.1c0,4.1,3.3,7.4,7.4,7.4h3.9v-3.1c0-1.3,1.1-2.4,2.4-2.4h13.8
	c1.3,0,2.4,1.1,2.4,2.4v3.1h3.9c4.1,0,7.4-3.3,7.4-7.4C381.2,59,378.2,55.8,374.5,55.5z"/>
<path class="st2" d="M351.4,73.4c0,1.3,1.1,2.4,2.4,2.4h13.8c1.3,0,2.4-1.1,2.4-2.4v-3.1h-18.5V73.4z"/>
<path class="st2" d="M367.5,64.7h-13.8c-1.3,0-2.4,1.1-2.4,2.4v3.1h18.5v-3.1C369.9,65.8,368.8,64.7,367.5,64.7z"/>
<path class="st2" d="M367.5,64.7h-13.8c-1.3,0-2.4,1.1-2.4,2.4v3.1h18.5v-3.1C369.9,65.8,368.8,64.7,367.5,64.7z"/>
<circle class="st1" cx="32.8" cy="209.8" r="28.3"/>
<g>
	<path class="st5" d="M272.7,138c-0.7,0-1.4-0.3-1.9-0.8c-1-1-1-2.7,0-3.8l9.3-9.3c1-1,2.7-1,3.8,0c1,1,1,2.7,0,3.8l-9.3,9.3
		C274.1,137.8,273.4,138,272.7,138"/>
	<path class="st5" d="M268.5,143.9c-0.5,0-0.9-0.4-0.9-0.9c0-0.5,0.4-0.9,0.9-0.9c1.4,0,2.5-1.1,2.5-2.5s-1.1-2.5-2.5-2.5
		c-1.4,0-2.5,1.1-2.5,2.5c0,0.5-0.4,0.9-0.9,0.9c-0.5,0-0.9-0.4-0.9-0.9c0-2.4,1.9-4.3,4.3-4.3c2.4,0,4.3,1.9,4.3,4.3
		C272.8,142,270.8,143.9,268.5,143.9"/>
	<path class="st2" d="M291.4,140.7c-1.4,0-2.7-0.5-3.8-1.6l-9.3-9.3c-2.1-2.1-2.1-5.5,0-7.6c2.1-2.1,5.5-2.1,7.6,0l9.3,9.3
		c2.1,2.1,2.1,5.5,0,7.6C294.1,140.2,292.7,140.7,291.4,140.7"/>
	<path class="st4" d="M283.9,126.1c0,1-0.8,1.9-1.9,1.9s-1.9-0.8-1.9-1.9c0-1,0.8-1.9,1.9-1.9S283.9,125,283.9,126.1"/>
	<path class="st4" d="M273.6,135.4c0,0.5-0.4,0.9-0.9,0.9c-0.5,0-0.9-0.4-0.9-0.9c0-0.5,0.4-0.9,0.9-0.9
		C273.2,134.5,273.6,134.9,273.6,135.4"/>
	<path class="st5" d="M284.2,147.8v-12.2c0-3.9,3-7.2,6.9-7.3c4.1-0.1,7.4,3.1,7.4,7.1v12.4c0,0.4-0.3,0.8-0.8,0.8H285
		C284.5,148.5,284.2,148.2,284.2,147.8z"/>
	<circle class="st7" cx="291.4" cy="135.4" r="4.4"/>
</g>
<g>
	<path class="st5" d="M44.8,215.1h-24c-2.9,0-5.3-2.4-5.3-5.3c0-2.9,2.4-5.3,5.3-5.3h24c2.9,0,5.3,2.4,5.3,5.3
		C50,212.7,47.7,215.1,44.8,215.1"/>
	<path class="st5" d="M44.8,226.2h-24c-2.9,0-5.3-2.4-5.3-5.3c0-2.9,2.4-5.3,5.3-5.3h24c2.9,0,5.3,2.4,5.3,5.3
		C50,223.9,47.7,226.2,44.8,226.2"/>
	<path class="st5" d="M44.8,204h-24c-2.9,0-5.3-2.4-5.3-5.3c0-2.9,2.4-5.3,5.3-5.3h24c2.9,0,5.3,2.4,5.3,5.3
		C50,201.6,47.7,204,44.8,204"/>
	<g>
		<rect x="19.9" y="207.5" class="st4" width="0.5" height="4.7"/>
		<rect x="21.9" y="207.5" class="st4" width="0.5" height="4.7"/>
		<rect x="23.8" y="207.5" class="st4" width="0.5" height="4.7"/>
		<rect x="25.8" y="207.5" class="st4" width="0.5" height="4.7"/>
		<rect x="27.7" y="207.5" class="st4" width="0.5" height="4.7"/>
		<rect x="29.7" y="207.5" class="st4" width="0.5" height="4.7"/>
		<path class="st4" d="M45.6,208.1c-1,0-1.8,0.8-1.8,1.8c0,1,0.8,1.8,1.8,1.8c1,0,1.8-0.8,1.8-1.8C47.3,208.9,46.6,208.1,45.6,208.1
			z"/>
		<rect x="19.9" y="218.6" class="st4" width="0.5" height="4.7"/>
		<rect x="21.9" y="218.6" class="st4" width="0.5" height="4.7"/>
		<rect x="23.8" y="218.6" class="st4" width="0.5" height="4.7"/>
		<rect x="25.8" y="218.6" class="st4" width="0.5" height="4.7"/>
		<rect x="27.7" y="218.6" class="st4" width="0.5" height="4.7"/>
		<rect x="29.7" y="218.6" class="st4" width="0.5" height="4.7"/>
		<path class="st4" d="M45.6,219.2c-1,0-1.8,0.8-1.8,1.8c0,1,0.8,1.8,1.8,1.8c1,0,1.8-0.8,1.8-1.8C47.3,220,46.6,219.2,45.6,219.2z"
			/>
		<rect x="19.9" y="196.4" class="st4" width="0.5" height="4.7"/>
		<rect x="21.9" y="196.4" class="st4" width="0.5" height="4.7"/>
		<rect x="23.8" y="196.4" class="st4" width="0.5" height="4.7"/>
		<rect x="25.8" y="196.4" class="st4" width="0.5" height="4.7"/>
		<rect x="27.7" y="196.4" class="st4" width="0.5" height="4.7"/>
		<rect x="29.7" y="196.4" class="st4" width="0.5" height="4.7"/>
		<path class="st4" d="M45.6,200.5c1,0,1.8-0.8,1.8-1.8c0-1-0.8-1.8-1.8-1.8c-1,0-1.8,0.8-1.8,1.8C43.8,199.7,44.6,200.5,45.6,200.5
			z"/>
	</g>
</g>
<g>
	<circle class="st1" cx="60.8" cy="60.2" r="30.2"/>
	<g>
		<path class="st2" d="M57.4,44.3l-8.3,4.4c-2.4,1.3-4,3.8-4,6.6l0,9.7c0,2.8,1.5,5.3,4,6.6l8.3,4.4c2.2,1.2,4.8,1.2,7,0l8.2-4.3
			c2.4-1.3,4-3.8,4-6.6v-9.9c0-2.8-1.5-5.3-4-6.6l-8.2-4.3C62.2,43.2,59.6,43.2,57.4,44.3z"/>
		<path class="st5" d="M47.3,56.5l0,9.2c0,1.7,0.9,3.2,2.4,4l7.7,4c1.1,0.6,2.4-0.2,2.4-1.4l0-9.8c0-1.4-0.7-2.6-1.9-3.2L49.7,55
			C48.6,54.5,47.3,55.3,47.3,56.5z"/>
		<path class="st4" d="M74.4,56.5l0,9.2c0,1.7-0.9,3.2-2.4,4l-7.7,4c-1.1,0.6-2.4-0.2-2.4-1.4l0-9.8c0-1.4,0.7-2.6,1.9-3.2L72,55
			C73.1,54.5,74.4,55.3,74.4,56.5z"/>
	</g>
</g>
<g>
	<path class="st2" d="M204.6,28.2h-0.4c-3.7,0-7.2,1.6-9.7,4.3c-2.5,2.8-3.7,6.5-3.2,10.2c0.7,6,5.5,10.8,11.5,11.5
		c0.5,0.1,1,0.1,1.4,0.1c3.2,0,6.3-1.2,8.7-3.3c2.8-2.5,4.3-6,4.3-9.7v-0.4v-6.3h-12.7V28.2z"/>
	<path class="st5" d="M217.6,14.7c-7.2,0-13,5.9-13,13v0.4v6.3h12.7v6.3h0.4c7.2,0,13-5.9,13-13S224.8,14.7,217.6,14.7z"/>
	<path class="st4" d="M217.6,20.1c-4.2,0-7.7,3.4-7.7,7.7v1.3l-0.7-0.7c-0.4-0.4-1-0.4-1.4,0c-0.2,0.2-0.3,0.4-0.3,0.7
		s0.1,0.5,0.3,0.7l2.4,2.4c0.1,0.1,0.2,0.2,0.3,0.2c0.2,0.1,0.5,0.1,0.7,0c0.1,0,0.2-0.1,0.3-0.2l2.4-2.4c0.2-0.2,0.3-0.4,0.3-0.7
		s-0.1-0.5-0.3-0.7c-0.4-0.4-1-0.4-1.4,0l-0.7,0.7v-1.3c0-3.2,2.6-5.8,5.8-5.8s5.8,2.6,5.8,5.8c0,3.2-2.6,5.8-5.8,5.8h-13.4
		c-4.2,0-7.7,3.4-7.7,7.7c0,4.2,3.4,7.7,7.7,7.7c4.2,0,7.7-3.4,7.7-7.7v-1.3l0.7,0.7c0.4,0.4,1,0.4,1.3,0c0.2-0.2,0.3-0.4,0.3-0.7
		s-0.1-0.5-0.3-0.7l-2.4-2.4c-0.4-0.4-1-0.4-1.4,0l-2.4,2.4c-0.2,0.2-0.3,0.4-0.3,0.7s0.1,0.5,0.3,0.7c0.4,0.4,1,0.4,1.4,0l0.7-0.7
		v1.3c0,3.2-2.6,5.8-5.8,5.8s-5.8-2.6-5.8-5.8c0-3.2,2.6-5.8,5.8-5.8h13.4c4.2,0,7.7-3.4,7.7-7.7C225.3,23.6,221.9,20.1,217.6,20.1z
		"/>
</g>
<g>
	<circle class="st1" cx="386.3" cy="213.8" r="30.2"/>
	<g>
		<path class="st2" d="M400.2,198.4c-7.7-7.7-20.2-7.7-27.9,0c-7,7-7.6,17.8-2,25.5c0.5,0.7,1.1,1.4,1.7,2c0.1,0.1,0.2,0.2,0.3,0.4
			c0.1,0.1,0.2,0.2,0.3,0.3c0.6,0.6,1.3,1.2,2,1.7c2.6,1.9,5.5,3,8.5,3.5c0.9,0.1,1.8,0.2,2.6,0.2c0.3,0,0.6,0,0.9,0
			c0.9,0,1.8-0.1,2.6-0.2c3-0.5,5.9-1.6,8.5-3.5c0.7-0.5,1.4-1.1,2-1.7c0.1-0.1,0.2-0.2,0.4-0.3c0.1-0.1,0.2-0.2,0.3-0.4
			c0.6-0.6,1.2-1.3,1.7-2C407.8,216.2,407.1,205.4,400.2,198.4z"/>
		<path class="st5" d="M386.3,202.4c1.6,0,2.8,1.3,2.8,2.8h1.5c3.2,0,4.9-3.7,2.9-6.2c-1.7-2-4.3-3.3-7.2-3.3
			c-2.9,0-5.5,1.3-7.2,3.3c-2.1,2.4-0.3,6.2,2.9,6.2h1.5C383.4,203.6,384.7,202.4,386.3,202.4z"/>
		<path class="st4" d="M402.2,223.9c-0.5-0.5-1.2-0.7-2-0.7c-0.2,0-0.4,0-0.6,0.1l-10.9-16.5c0.3-0.4,0.4-1,0.4-1.5
			c0-1.6-1.3-2.8-2.8-2.8c-1.6,0-2.8,1.3-2.8,2.8c0,0.6,0.2,1.1,0.4,1.5l-10.9,16.5c-0.2,0-0.4-0.1-0.6-0.1c-0.8,0-1.5,0.3-2,0.7
			c-0.7,0.6-1.1,1.4-1.1,2.4c0,1.7,1.4,3.1,3.1,3.1c0.9,0,1.8-0.4,2.4-1.1c0.5-0.5,0.7-1.2,0.7-2c0-0.6-0.2-1.2-0.5-1.7l10.2-15.4
			v20c-1.1,0.5-1.9,1.5-1.9,2.7c0,0,0,0.1,0,0.1c0,1.7,1.4,3.1,3.1,3.1c1.7,0,3.1-1.4,3.1-3.1c0,0,0-0.1,0-0.1
			c0-1.2-0.8-2.3-1.9-2.7v-20l10.2,15.4c-0.3,0.5-0.5,1.1-0.5,1.7c0,0.8,0.3,1.5,0.7,2c0.6,0.7,1.4,1.1,2.4,1.1
			c1.7,0,3.1-1.4,3.1-3.1C403.3,225.3,402.9,224.5,402.2,223.9z"/>
	</g>
</g>
</svg>
